# xmcd
#
# Track frame offsets:
#	150
#	31281
#	57420
#	97990
#	135896
#	166645
#	195825
#
# Disc length: 3056 seconds
#
# Revision: 1
# Processed by: cddbd v1.5.2PL0 Copyright (c) Steve Scherf et al.
# Submitted via: audiograbber 1.83.01
#
DISCID=460bee07
DTITLE=Grateful Dead - 80-12-31 Oakland Auditorium Arena, Oakland CA
DYEAR=1900
DGENRE=
TTITLE0=China Cat Sunflower
TTITLE1=I Know You Rider
TTITLE2=Looks Like Rain
TTITLE3=Althea
TTITLE4=Lost Sailor
TTITLE5=Saint Of Circumstance
TTITLE6=Deal
EXTD=
EXTT0=
EXTT1=
EXTT2=
EXTT3=
EXTT4=
EXTT5=
EXTT6=
PLAYORDER=
